<svg xmlns="http://www.w3.org/2000/svg" width="204" height="52" viewBox="0 0 204 52" fill="none"><path fill="#060505" fill-opacity=".85" d="M7.024 40.95H4.05V24.892h2.975V40.95Zm.29-8.611c.412-.569.853-1.158 1.321-1.768l1.447-1.872c.495-.638.977-1.276 1.446-1.914.482-.638.93-1.269 1.342-1.893h3.182c-.4.652-.84 1.318-1.322 1.997-.469.68-.944 1.352-1.426 2.018a81.7 81.7 0 0 1-1.425 1.872c-.455.596-.868 1.13-1.24 1.601l6.384 8.57h-3.326l-6.384-8.611ZM27.75 32.152c.4.11.772.284 1.116.52.345.222.64.499.889.832.248.332.44.72.578 1.164.152.43.227.895.227 1.394a4.96 4.96 0 0 1-.392 1.976c-.262.596-.668 1.123-1.22 1.58-.536.444-1.218.798-2.044 1.062-.827.25-1.804.374-2.934.374-.248 0-.564-.014-.95-.042a46.572 46.572 0 0 1-2.562-.166c-.44-.055-.847-.118-1.218-.187v-15.08a13.03 13.03 0 0 1 1.177-.416c.413-.125.833-.236 1.26-.333a10.5 10.5 0 0 1 1.24-.208 8.27 8.27 0 0 1 1.136-.083c.854 0 1.632.104 2.334.312.716.194 1.322.478 1.818.853.51.374.902.832 1.178 1.372.289.527.434 1.124.434 1.79 0 .387-.055.755-.166 1.102-.11.346-.261.665-.454.956a3.255 3.255 0 0 1-1.446 1.227ZM27.566 36c0-.43-.097-.805-.29-1.124a2.26 2.26 0 0 0-.743-.79 3.163 3.163 0 0 0-1.054-.458c-.399-.11-.812-.166-1.24-.166h-2.024v5.158c.386.056.723.098 1.013.125.289.014.64.021 1.053.021.482 0 .923-.048 1.322-.146.4-.097.744-.256 1.033-.478.29-.222.517-.506.682-.853.165-.36.248-.79.248-1.29Zm-3.719-4.764c.413 0 .8-.048 1.157-.145a3.07 3.07 0 0 0 .93-.458c.275-.208.489-.45.64-.728.165-.277.248-.596.248-.957 0-.374-.076-.693-.227-.956a1.86 1.86 0 0 0-.6-.666 2.492 2.492 0 0 0-.867-.395 4.217 4.217 0 0 0-1.033-.125c-.44 0-.82.035-1.136.104a7.96 7.96 0 0 0-.744.166v4.16h1.632ZM37.633 38.475c.579.152 1.199.284 1.86.395.66.11 1.308.166 1.942.166 1.143 0 1.962-.194 2.458-.582.496-.388.744-.915.744-1.58 0-.583-.131-1.062-.393-1.436-.262-.374-.682-.742-1.26-1.102a68.932 68.932 0 0 0-1.963-1.207c-.62-.388-1.17-.749-1.652-1.081-.661-.458-1.15-.964-1.467-1.519-.317-.555-.475-1.22-.475-1.997 0-.637.124-1.2.372-1.684.248-.5.592-.916 1.033-1.248.454-.347.984-.61 1.59-.79.62-.181 1.295-.271 2.025-.271.303 0 .66.02 1.074.062.413.028.833.076 1.26.146.427.055.84.125 1.24.208.413.07.764.145 1.053.229l-.31 2.017c-.275-.041-.599-.083-.97-.125-.359-.041-.73-.083-1.116-.124a30.233 30.233 0 0 0-1.116-.104 12.7 12.7 0 0 0-.97-.042c-.662 0-1.171.146-1.53.437-.357.277-.536.693-.536 1.248 0 .485.117.86.35 1.123.249.25.552.506.91.77.385.29.874.61 1.466.956a30.14 30.14 0 0 1 1.715 1.082c.4.277.764.569 1.095.874.344.305.64.638.888.998s.441.756.579 1.186c.137.416.206.88.206 1.393 0 .666-.137 1.276-.413 1.83a3.897 3.897 0 0 1-1.219 1.394c-.537.375-1.205.666-2.004.874-.784.222-1.687.333-2.706.333-.303 0-.647-.028-1.033-.084-.371-.041-.75-.097-1.136-.166-.372-.07-.737-.153-1.095-.25a9.654 9.654 0 0 1-.888-.29l.392-2.04ZM57.372 35.812c-.441-.11-.868-.208-1.281-.29a5.055 5.055 0 0 0-1.198-.146c-.537 0-.971.16-1.302.478-.316.319-.475.79-.475 1.414 0 .638.172 1.11.517 1.415.358.305.826.457 1.404.457.317 0 .675-.02 1.075-.062.399-.042.819-.118 1.26-.229v-3.037Zm.02-2.683c0-.651-.179-1.15-.537-1.497-.344-.36-.93-.541-1.756-.541-.66 0-1.246.014-1.756.041-.51.028-1.026.063-1.549.104l-.165-1.81c.275-.055.571-.11.888-.166.33-.069.654-.124.971-.166.33-.042.647-.076.95-.104.303-.028.579-.042.827-.042 1.583 0 2.802.382 3.656 1.144.868.75 1.302 1.88 1.302 3.39v6.657a11.93 11.93 0 0 1-1.302.437c-.482.124-.985.242-1.508.353-.51.111-1.02.194-1.529.25-.495.07-.957.104-1.384.104a5.02 5.02 0 0 1-1.756-.291 3.964 3.964 0 0 1-1.343-.812 4.008 4.008 0 0 1-.847-1.268 4.524 4.524 0 0 1-.289-1.644c0-.568.104-1.095.31-1.58.207-.5.496-.93.868-1.29.386-.36.847-.645 1.384-.853a4.882 4.882 0 0 1 1.776-.312c.483 0 .958.056 1.426.167.468.11.923.242 1.363.395v-.666ZM70.282 35.812c-.44-.11-.867-.208-1.28-.29a5.056 5.056 0 0 0-1.199-.146c-.537 0-.97.16-1.301.478-.317.319-.475.79-.475 1.414 0 .638.172 1.11.516 1.415.358.305.826.457 1.405.457.317 0 .675-.02 1.074-.062.4-.042.82-.118 1.26-.229v-3.037Zm.021-2.683c0-.651-.179-1.15-.537-1.497-.344-.36-.93-.541-1.756-.541-.661 0-1.246.014-1.756.041-.51.028-1.026.063-1.55.104l-.165-1.81c.276-.055.572-.11.889-.166.33-.069.654-.124.97-.166.331-.042.648-.076.95-.104.304-.028.58-.042.827-.042 1.584 0 2.803.382 3.657 1.144.867.75 1.301 1.88 1.301 3.39v6.657a11.93 11.93 0 0 1-1.301.437c-.482.124-.985.242-1.508.353-.51.111-1.02.194-1.53.25-.495.07-.956.104-1.383.104a5.02 5.02 0 0 1-1.756-.291 3.963 3.963 0 0 1-1.343-.812 4.008 4.008 0 0 1-.847-1.268 4.524 4.524 0 0 1-.29-1.644c0-.568.104-1.095.31-1.58.207-.5.497-.93.868-1.29.386-.36.847-.645 1.385-.853a4.881 4.881 0 0 1 1.776-.312c.482 0 .957.056 1.426.167.468.11.922.242 1.363.395v-.666ZM76.789 38.475c.578.152 1.198.284 1.86.395.66.11 1.308.166 1.941.166 1.143 0 1.962-.194 2.458-.582.496-.388.744-.915.744-1.58 0-.583-.13-1.062-.392-1.436-.262-.374-.682-.742-1.26-1.102-.675-.43-1.33-.832-1.963-1.207-.62-.388-1.17-.749-1.653-1.081-.66-.458-1.15-.964-1.467-1.519-.316-.555-.475-1.22-.475-1.997 0-.637.124-1.2.372-1.684.248-.5.592-.916 1.033-1.248.455-.347.985-.61 1.59-.79.62-.181 1.295-.271 2.025-.271.303 0 .661.02 1.075.062.413.028.833.076 1.26.146.427.055.84.125 1.24.208.412.07.763.145 1.053.229l-.31 2.017c-.276-.041-.6-.083-.971-.125-.358-.041-.73-.083-1.116-.124a30.233 30.233 0 0 0-1.115-.104 12.7 12.7 0 0 0-.971-.042c-.661 0-1.17.146-1.529.437-.358.277-.537.693-.537 1.248 0 .485.117.86.351 1.123.248.25.551.506.91.77.385.29.874.61 1.466.956.592.347 1.164.708 1.715 1.082.399.277.764.569 1.094.874.345.305.64.638.889.998.248.36.44.756.578 1.186.138.416.207.88.207 1.393 0 .666-.138 1.276-.413 1.83a3.897 3.897 0 0 1-1.22 1.394c-.536.375-1.204.666-2.003.874-.785.222-1.687.333-2.706.333-.303 0-.648-.028-1.033-.084-.372-.041-.75-.097-1.136-.166-.372-.07-.737-.153-1.095-.25a9.654 9.654 0 0 1-.889-.29l.393-2.04ZM109.277 40.95V25.558a26.22 26.22 0 0 1 2.665-.728c.909-.194 1.742-.291 2.5-.291.757 0 1.48.131 2.169.395.702.25 1.315.617 1.838 1.102a5.182 5.182 0 0 1 1.24 1.79c.317.692.475 1.483.475 2.37 0 .819-.138 1.567-.413 2.247a4.862 4.862 0 0 1-1.136 1.747 5.333 5.333 0 0 1-1.798 1.144c-.702.277-1.487.416-2.355.416-.371 0-.736-.028-1.095-.083a10.946 10.946 0 0 1-1.094-.229v5.512h-2.996Zm7.912-10.858c0-1.026-.227-1.816-.681-2.37-.455-.57-1.157-.854-2.108-.854-.275 0-.606.035-.991.104a6.425 6.425 0 0 0-1.136.27v5.804c.371.125.716.215 1.033.27.316.042.667.063 1.053.063 1.019 0 1.742-.298 2.169-.895.441-.61.661-1.407.661-2.392ZM127.178 41.532c-1.239-.166-2.231-.596-2.975-1.29-.73-.706-1.095-1.677-1.095-2.911V24.684l2.934-.312v12.564c0 .707.151 1.255.454 1.643.303.388.779.68 1.426.873l-.744 2.08ZM136.54 35.812a27.32 27.32 0 0 0-1.28-.29 5.062 5.062 0 0 0-1.199-.146c-.537 0-.971.16-1.301.478-.317.319-.475.79-.475 1.414 0 .638.172 1.11.516 1.415.358.305.827.457 1.405.457.317 0 .675-.02 1.074-.062.4-.042.82-.118 1.26-.229v-3.037Zm.021-2.683c0-.651-.179-1.15-.537-1.497-.344-.36-.93-.541-1.756-.541-.661 0-1.246.014-1.756.041a61.81 61.81 0 0 0-1.549.104l-.166-1.81c.276-.055.572-.11.889-.166.33-.069.654-.124.971-.166.33-.042.647-.076.95-.104.303-.028.578-.042.826-.042 1.584 0 2.803.382 3.657 1.144.867.75 1.301 1.88 1.301 3.39v6.657c-.372.152-.805.298-1.301.437-.482.124-.985.242-1.508.353-.51.111-1.019.194-1.529.25-.496.07-.957.104-1.384.104a5.02 5.02 0 0 1-1.756-.291 3.969 3.969 0 0 1-1.343-.812 4.017 4.017 0 0 1-.847-1.268 4.52 4.52 0 0 1-.289-1.644c0-.568.103-1.095.31-1.58.206-.5.496-.93.867-1.29.386-.36.847-.645 1.385-.853a4.878 4.878 0 0 1 1.776-.312c.482 0 .957.056 1.426.167.468.11.922.242 1.363.395v-.666ZM146.249 26.078v3.39h2.727v2.205h-2.727v5.949c0 .666.131 1.116.392 1.352.262.222.634.333 1.116.333.234 0 .461-.014.682-.042.234-.041.468-.076.702-.104l.289 1.768a5.91 5.91 0 0 1-.95.27c-.344.07-.682.105-1.012.105-1.295 0-2.314-.285-3.058-.853-.73-.583-1.095-1.463-1.095-2.642v-6.136h-1.632v-2.205h1.632V26.37l2.934-.291ZM152.523 40.95v-9.027h-1.467v-2.205h1.467v-1.394c0-.638.103-1.206.309-1.705.207-.513.496-.936.868-1.269.386-.347.84-.61 1.364-.79a5.483 5.483 0 0 1 2.644-.188c.33.056.592.118.785.188l-.269 1.955a7.967 7.967 0 0 0-.599-.063 7.263 7.263 0 0 0-.516-.02c-.579 0-.999.152-1.26.457-.262.305-.393.77-.393 1.394v1.435h2.458v2.205h-2.458v9.027h-2.933ZM168.085 35.147c0-.541-.061-1.054-.185-1.54a3.65 3.65 0 0 0-.538-1.268 2.79 2.79 0 0 0-.95-.895c-.372-.221-.826-.332-1.363-.332s-.999.11-1.384.332a2.87 2.87 0 0 0-.93.895c-.248.36-.434.783-.558 1.269-.11.485-.165.998-.165 1.539 0 .54.055 1.054.165 1.539.11.485.283.915.517 1.29.234.36.544.651.929.873.386.222.861.333 1.426.333.551 0 1.019-.11 1.404-.333.4-.222.717-.513.951-.873a4.14 4.14 0 0 0 .516-1.29c.11-.485.165-.998.165-1.54Zm2.934 0c0 .984-.152 1.858-.455 2.62a5.748 5.748 0 0 1-1.26 1.956c-.537.527-1.17.929-1.9 1.206a6.577 6.577 0 0 1-2.355.416c-.84 0-1.625-.139-2.355-.416a5.48 5.48 0 0 1-1.88-1.206 6.014 6.014 0 0 1-1.281-1.955c-.303-.763-.454-1.637-.454-2.621 0-.97.151-1.837.454-2.6.317-.777.744-1.428 1.281-1.955a5.335 5.335 0 0 1 1.88-1.228 6.577 6.577 0 0 1 2.355-.416c.84 0 1.625.14 2.355.416.73.278 1.363.687 1.9 1.228.537.527.957 1.178 1.26 1.955.303.763.455 1.63.455 2.6ZM173.527 40.95V29.302h2.437c.083.139.152.312.207.52.055.194.089.381.103.562a4.022 4.022 0 0 1 1.384-.936c.537-.236 1.199-.354 1.984-.354h.97v2.205h-.929c-.537 0-1.102.083-1.694.25a4.817 4.817 0 0 0-1.529.686v8.715h-2.933ZM183.038 40.95V30.196c.358-.138.751-.277 1.178-.416.427-.152.868-.29 1.322-.416a11.94 11.94 0 0 1 1.363-.29 7.69 7.69 0 0 1 1.343-.126c.634 0 1.26.07 1.88.208.62.125 1.088.326 1.405.604a20.45 20.45 0 0 1 1.88-.562 7.22 7.22 0 0 1 1.88-.25 4.8 4.8 0 0 1 1.652.27c.51.167.944.417 1.302.75.372.319.661.714.867 1.185.207.472.31 1.005.31 1.602v8.195h-2.851v-7.634c0-.43-.048-.783-.144-1.06-.083-.278-.207-.493-.372-.645a1.174 1.174 0 0 0-.537-.312 2.628 2.628 0 0 0-.682-.083c-.358 0-.75.062-1.177.187l-1.281.333c.069.221.124.45.165.686.041.222.062.45.062.686v7.842h-2.851v-7.82c0-.764-.131-1.27-.392-1.52-.248-.263-.689-.394-1.322-.394a4.26 4.26 0 0 0-1.137.166c-.399.097-.736.194-1.012.291v9.277h-2.851Z"/><path fill="#060505" fill-opacity=".85" fill-rule="evenodd" d="M53.945 17.558C55.883 8.993 63.485 2.6 72.575 2.6c9.828 0 17.921 7.478 18.988 17.095 6.385 1.735 11.083 7.61 11.083 14.593 0 8.345-6.713 15.112-14.996 15.112H37.773a1.296 1.296 0 0 1-1.291-1.3c0-.718.578-1.3 1.291-1.3H87.65c6.854 0 12.414-5.6 12.414-12.512 0-6.064-4.28-11.122-9.96-12.269l-.975-.197-.06-.998C88.538 12.105 81.355 5.2 72.573 5.2c-7.855 0-14.435 5.526-16.111 12.935-.159.7-.851 1.138-1.546.979a1.3 1.3 0 0 1-.972-1.556Z" clip-rule="evenodd"/></svg>
