<svg width="24" height="24" viewBox="0 0 24 24" fill="currentColor" xmlns="http://www.w3.org/2000/svg"><path fill-rule="evenodd" clip-rule="evenodd" d="M10.78 3.578a2.439 2.439 0 0 1 2.44 0c.371.214.68.522.899.891l.002.004 7.302 12.508a2.553 2.553 0 0 1 .007 2.491c-.212.381-.519.7-.892.926a2.44 2.44 0 0 1-1.233.352H4.696a2.44 2.44 0 0 1-1.235-.352 2.497 2.497 0 0 1-.89-.926 2.553 2.553 0 0 1 .006-2.491l.006-.01L9.881 4.468c.219-.37.527-.677.899-.891ZM12 4.75a.94.94 0 0 0-.47.127.995.995 0 0 0-.356.354l-.001.002L3.882 17.72a1.053 1.053 0 0 0 0 1.023c.086.155.209.282.355.37a.94.94 0 0 0 .472.136H19.29a.941.941 0 0 0 .472-.136.997.997 0 0 0 .355-.37 1.054 1.054 0 0 0 0-1.023l-7.29-12.488-.002-.002a.995.995 0 0 0-.356-.354.94.94 0 0 0-.47-.127Z"/><path fill-rule="evenodd" clip-rule="evenodd" d="M12 8.25a.75.75 0 0 1 .75.75v4a.75.75 0 0 1-1.5 0V9a.75.75 0 0 1 .75-.75ZM11.25 17a.75.75 0 0 1 .75-.75h.01a.75.75 0 0 1 0 1.5H12a.75.75 0 0 1-.75-.75Z"/></svg>
