<svg width="24" height="24" viewBox="0 0 24 24" fill="currentColor" xmlns="http://www.w3.org/2000/svg"><path fill-rule="evenodd" clip-rule="evenodd" d="M2.641 15.641A4.75 4.75 0 0 1 6 14.25h6A4.75 4.75 0 0 1 16.75 19v2a.75.75 0 0 1-1.5 0v-2A3.25 3.25 0 0 0 12 15.75H6A3.25 3.25 0 0 0 2.75 19v2a.75.75 0 0 1-1.5 0v-2c0-1.26.5-2.468 1.391-3.359ZM9 3.75a3.25 3.25 0 1 0 0 6.5 3.25 3.25 0 0 0 0-6.5ZM4.25 7a4.75 4.75 0 1 1 9.5 0 4.75 4.75 0 0 1-9.5 0ZM18.274 14.943a.75.75 0 0 1 .914-.54A4.75 4.75 0 0 1 22.75 19V21a.75.75 0 0 1-1.5 0v-2a3.251 3.251 0 0 0-2.437-3.144.75.75 0 0 1-.539-.913ZM15.274 2.944a.75.75 0 0 1 .912-.54 4.75 4.75 0 0 1 0 9.203.75.75 0 0 1-.372-1.454 3.25 3.25 0 0 0 0-6.296.75.75 0 0 1-.54-.913Z"/></svg>
