<svg width="24" height="24" viewBox="0 0 24 24" fill="currentColor" xmlns="http://www.w3.org/2000/svg"><path fill-rule="evenodd" clip-rule="evenodd" d="M12 6.75a.75.75 0 0 1 .75.75V12a.75.75 0 0 1-1.5 0V7.5a.75.75 0 0 1 .75-.75Z"/><path fill-rule="evenodd" clip-rule="evenodd" d="M12.45 11.4a.75.75 0 0 1 .15 1.05l-3 4a.75.75 0 1 1-1.2-.9l3-4a.75.75 0 0 1 1.05-.15Z"/><path fill-rule="evenodd" clip-rule="evenodd" d="M11.55 11.4a.75.75 0 0 1 1.05.15l3 4a.75.75 0 1 1-1.2.9l-3-4a.75.75 0 0 1 .15-1.05Z"/><path fill-rule="evenodd" clip-rule="evenodd" d="M6.768 10.837a.75.75 0 0 1 .895-.57l4.5 1a.75.75 0 0 1-.325 1.465l-4.5-1a.75.75 0 0 1-.57-.895Z"/><path fill-rule="evenodd" clip-rule="evenodd" d="M17.232 10.837a.75.75 0 0 1-.57.895l-4.5 1a.75.75 0 1 1-.325-1.464l4.5-1a.75.75 0 0 1 .895.57Z"/></svg>
