<svg width="24" height="24" viewBox="0 0 24 24" fill="currentColor" xmlns="http://www.w3.org/2000/svg"><path fill-rule="evenodd" clip-rule="evenodd" d="M12 3.75a8.25 8.25 0 1 0 0 16.5 8.25 8.25 0 0 0 0-16.5ZM2.25 12c0-5.385 4.365-9.75 9.75-9.75s9.75 4.365 9.75 9.75-4.365 9.75-9.75 9.75S2.25 17.385 2.25 12Z"/><path fill-rule="evenodd" clip-rule="evenodd" d="M12.3 7.778a2.25 2.25 0 0 0-2.502 1.47.75.75 0 1 1-1.415-.497 3.75 3.75 0 0 1 7.287 1.25c0 1.397-1.039 2.343-1.834 2.873a7.79 7.79 0 0 1-1.631.82l-.032.012-.01.004h-.004v.001c-.001 0-.002 0-.239-.711l.237.711a.75.75 0 0 1-.475-1.422l.003-.001.018-.006.079-.03a6.303 6.303 0 0 0 1.222-.626c.705-.47 1.166-1.024 1.166-1.626v-.001a2.25 2.25 0 0 0-1.87-2.221ZM11.25 17a.75.75 0 0 1 .75-.75h.01a.75.75 0 0 1 0 1.5H12a.75.75 0 0 1-.75-.75Z"/></svg>
