<svg width="24" height="24" viewBox="0 0 24 24" fill="none"><path stroke="currentColor" stroke-linecap="round" stroke-linejoin="round" stroke-width="1.5" d="M10 13.14c.396.533.9.973 1.48 1.292a4.58 4.58 0 0 0 5.464-.79l2.763-2.783A4.654 4.654 0 0 0 21 7.597a4.654 4.654 0 0 0-1.349-3.239A4.59 4.59 0 0 0 16.435 3a4.588 4.588 0 0 0-3.24 1.302l-1.583 1.586"/><path stroke="currentColor" stroke-linecap="round" stroke-linejoin="round" stroke-width="1.5" d="M14 10.86a4.615 4.615 0 0 0-1.48-1.292 4.581 4.581 0 0 0-5.464.79l-2.763 2.783A4.655 4.655 0 0 0 3 16.403a4.654 4.654 0 0 0 1.349 3.239A4.589 4.589 0 0 0 7.565 21a4.588 4.588 0 0 0 3.24-1.302l1.574-1.586"/></svg>
