<svg width="100" height="100" viewBox="0 0 100 100" fill="none" xmlns="http://www.w3.org/2000/svg"><path d="M44.667 70C57.553 70 68 59.553 68 46.667c0-12.887-10.447-23.334-23.333-23.334-12.887 0-23.334 10.447-23.334 23.334C21.334 59.553 31.78 70 44.668 70ZM74.667 76.667 61.333 63.333" stroke="#9B9B9B" stroke-width="4" stroke-linecap="round" stroke-linejoin="round"/><path d="M42.854 47.955v.008c.078.795.208 1.416.403 1.844v.002a1.2 1.2 0 0 0 .47.537c.206.123.446.178.71.178.262 0 .502-.058.709-.186.207-.128.365-.316.48-.55.215-.44.345-1.046.405-1.803v-.001l.546-6.255c.06-.583.09-1.158.09-1.725 0-.962-.123-1.73-.394-2.28-.3-.62-.894-.903-1.684-.903-.662 0-1.218.222-1.643.676-.42.45-.613 1.063-.613 1.809 0 .525.039 1.382.115 2.568l.406 6.081Zm.134 8.029.005.004c.435.368.945.554 1.52.554.569 0 1.072-.192 1.499-.571.443-.394.655-.932.655-1.583 0-.593-.218-1.102-.647-1.512a2.099 2.099 0 0 0-1.533-.63c-.598 0-1.115.212-1.535.632-.412.412-.619.92-.619 1.51 0 .658.211 1.201.655 1.596Z" fill="#9B9B9B" stroke="#9B9B9B" stroke-width=".5"/></svg>
