<svg width="48" height="48" viewBox="0 0 48 48" fill="none" xmlns="http://www.w3.org/2000/svg">
<rect width="48" height="48" rx="24" fill="#FAFAFA"/>
<path d="M28.8064 28.6805L28.5786 28.2354L28.5554 28.2473L28.5335 28.2616L28.8064 28.6805ZM19.1936 28.6805L19.4666 28.2616L19.4446 28.2473L19.4214 28.2354L19.1936 28.6805ZM20.0106 29.9723L20.5083 29.9246L20.5083 29.9246L20.0106 29.9723ZM20.0238 30.0921L20.5232 30.067L20.5222 30.0482L20.5199 30.0295L20.0238 30.0921ZM20.0305 30.2248L19.5311 30.25L20.0305 30.2248ZM27.9711 30.2248L28.4704 30.25V30.25L27.9711 30.2248ZM27.9788 30.0706L27.4824 30.0111L27.4803 30.0282L27.4795 30.0455L27.9788 30.0706ZM27.9894 29.9723L28.4871 30.0201L27.9894 29.9723ZM34 19.4168C34 23.2549 31.8009 26.5866 28.5786 28.2354L29.0342 29.1256C32.5748 27.314 35 23.6479 35 19.4168H34ZM24 9.5C29.5266 9.5 34 13.9436 34 19.4168H35C35 13.3839 30.0714 8.5 24 8.5V9.5ZM14 19.4168C14 13.9436 18.4734 9.5 24 9.5V8.5C17.9286 8.5 13 13.3839 13 19.4168H14ZM19.4214 28.2354C16.1991 26.5866 14 23.2549 14 19.4168H13C13 23.6479 15.4252 27.314 18.9659 29.1257L19.4214 28.2354ZM20.5083 29.9246C20.4236 29.0419 19.8714 28.5254 19.4666 28.2616L18.9207 29.0995C19.1862 29.2725 19.4683 29.5554 19.5129 30.0201L20.5083 29.9246ZM20.5199 30.0295C20.5159 29.9978 20.512 29.9629 20.5083 29.9246L19.5129 30.0201C19.5174 30.0672 19.5224 30.1121 19.5278 30.1548L20.5199 30.0295ZM20.5299 30.1996L20.5232 30.067L19.5245 30.1173L19.5311 30.25L20.5299 30.1996ZM24.0008 33.5C22.1494 33.5 20.6231 32.0487 20.5299 30.1996L19.5311 30.25C19.6512 32.631 21.6167 34.5 24.0008 34.5V33.5ZM27.4717 30.1996C27.3785 32.0487 25.8521 33.5 24.0008 33.5V34.5C26.3849 34.5 28.3504 32.631 28.4704 30.25L27.4717 30.1996ZM27.4795 30.0455L27.4717 30.1996L28.4704 30.25L28.4782 30.0958L27.4795 30.0455ZM28.4753 30.1302C28.4795 30.095 28.4834 30.0583 28.4871 30.0201L27.4917 29.9246C27.4887 29.9556 27.4856 29.9844 27.4824 30.0111L28.4753 30.1302ZM28.4871 30.0201C28.5317 29.5554 28.8138 29.2725 29.0793 29.0995L28.5335 28.2616C28.1286 28.5253 27.5764 29.0419 27.4917 29.9246L28.4871 30.0201Z" fill="#2B2A2A"/>
<path d="M17 26.7511C17.9112 25.9162 19.2916 24.4292 20.3587 22.7715M20.3587 22.7715C21.3049 21.3014 22.0046 19.6972 21.9123 18.2944C21.6667 14.5635 17.577 19.7868 20.3587 22.7715ZM20.3587 22.7715C21.204 24.0152 22.4035 25.7564 24.1228 25.7564C25.9933 25.7564 31.4912 17.5937 28.2982 17.2997C25.5965 17.051 25.5965 25.2589 31 27" stroke="#2B2A2A"/>
<mask id="path-4-inside-1_6729_31076" fill="white">
<path fill-rule="evenodd" clip-rule="evenodd" d="M17 32.5C17 31.6716 17.6716 31 18.5 31H29.5C30.3284 31 31 31.6716 31 32.5C31 33.3284 30.3284 34 29.5 34C30.3284 34 31 34.6716 31 35.5C31 36.3284 30.3284 37 29.5 37C30.3284 37 31 37.6716 31 38.5C31 39.3284 30.3284 40 29.5 40H18.5C17.6716 40 17 39.3284 17 38.5C17 37.6716 17.6716 37 18.5 37C17.6716 37 17 36.3284 17 35.5C17 34.6716 17.6716 34 18.5 34C17.6716 34 17 33.3284 17 32.5Z"/>
</mask>
<path fill-rule="evenodd" clip-rule="evenodd" d="M17 32.5C17 31.6716 17.6716 31 18.5 31H29.5C30.3284 31 31 31.6716 31 32.5C31 33.3284 30.3284 34 29.5 34C30.3284 34 31 34.6716 31 35.5C31 36.3284 30.3284 37 29.5 37C30.3284 37 31 37.6716 31 38.5C31 39.3284 30.3284 40 29.5 40H18.5C17.6716 40 17 39.3284 17 38.5C17 37.6716 17.6716 37 18.5 37C17.6716 37 17 36.3284 17 35.5C17 34.6716 17.6716 34 18.5 34C17.6716 34 17 33.3284 17 32.5Z" fill="#FAFAFA"/>
<path d="M29.5 33C28.9477 33 28.5 33.4477 28.5 34C28.5 34.5523 28.9477 35 29.5 35V33ZM29.5 36C28.9477 36 28.5 36.4477 28.5 37C28.5 37.5523 28.9477 38 29.5 38V36ZM18.5 38C19.0523 38 19.5 37.5523 19.5 37C19.5 36.4477 19.0523 36 18.5 36V38ZM18.5 35C19.0523 35 19.5 34.5523 19.5 34C19.5 33.4477 19.0523 33 18.5 33V35ZM18.5 30C17.1193 30 16 31.1193 16 32.5H18C18 32.2239 18.2239 32 18.5 32V30ZM29.5 30H18.5V32H29.5V30ZM32 32.5C32 31.1193 30.8807 30 29.5 30V32C29.7761 32 30 32.2239 30 32.5H32ZM29.5 35C30.8807 35 32 33.8807 32 32.5H30C30 32.7761 29.7761 33 29.5 33V35ZM32 35.5C32 34.1193 30.8807 33 29.5 33V35C29.7761 35 30 35.2239 30 35.5H32ZM29.5 38C30.8807 38 32 36.8807 32 35.5H30C30 35.7761 29.7761 36 29.5 36V38ZM29.5 38C29.7761 38 30 38.2239 30 38.5H32C32 37.1193 30.8807 36 29.5 36V38ZM30 38.5C30 38.7761 29.7761 39 29.5 39V41C30.8807 41 32 39.8807 32 38.5H30ZM29.5 39H18.5V41H29.5V39ZM18.5 39C18.2239 39 18 38.7761 18 38.5H16C16 39.8807 17.1193 41 18.5 41V39ZM18 38.5C18 38.2239 18.2239 38 18.5 38V36C17.1193 36 16 37.1193 16 38.5H18ZM16 35.5C16 36.8807 17.1193 38 18.5 38V36C18.2239 36 18 35.7761 18 35.5H16ZM18.5 33C17.1193 33 16 34.1193 16 35.5H18C18 35.2239 18.2239 35 18.5 35V33ZM16 32.5C16 33.8807 17.1193 35 18.5 35V33C18.2239 33 18 32.7761 18 32.5H16Z" fill="#2B2A2A" mask="url(#path-4-inside-1_6729_31076)"/>
</svg>
