<svg width="48" height="48" viewBox="0 0 48 48" fill="none" xmlns="http://www.w3.org/2000/svg">
<rect width="48" height="48" rx="24" fill="#FAFAFA"/>
<path d="M24.5003 33.3333C29.1027 33.3333 32.8337 29.6023 32.8337 25C32.8337 20.3976 29.1027 16.6666 24.5003 16.6666C19.898 16.6666 16.167 20.3976 16.167 25C16.167 29.6023 19.898 33.3333 24.5003 33.3333Z" stroke="#2B2A2A" stroke-linecap="round" stroke-linejoin="round"/>
<path d="M21.167 26.6666C21.167 26.6666 22.417 28.3333 24.5003 28.3333C26.5837 28.3333 27.8337 26.6666 27.8337 26.6666" stroke="#2B2A2A" stroke-linecap="round" stroke-linejoin="round"/>
<path d="M22 24H22.0086" stroke="#2B2A2A" stroke-width="2" stroke-linecap="round" stroke-linejoin="round"/>
<path d="M27 24H27.0086" stroke="#2B2A2A" stroke-width="2" stroke-linecap="round" stroke-linejoin="round"/>
<path d="M12.8662 23.2743V21.0971C12.8662 18.0655 14.0848 15.1582 16.2539 13.0146C18.423 10.871 21.365 9.66675 24.4326 9.66675C27.5002 9.66675 30.4421 10.871 32.6113 13.0146C34.7804 15.1582 35.999 18.0655 35.999 21.0971V23.2743" stroke="#2B2A2A" stroke-linecap="round" stroke-linejoin="round"/>
<path d="M31.5918 36.0853C33.3636 35.2661 36.0001 33.7352 36.0001 29.5337V27.3565" stroke="#2B2A2A" stroke-linecap="round" stroke-linejoin="round"/>
<path d="M35.999 27.5507C35.999 28.2209 35.7282 28.8637 35.2462 29.3376C34.7641 29.8115 34.1104 30.0778 33.4287 30.0778H33.5043C32.8226 30.0778 32.1688 29.8115 31.6868 29.3376C31.2048 28.8637 30.934 28.2209 30.934 27.5507V23.76C30.934 23.0898 31.2048 22.447 31.6868 21.9731C32.1688 21.4992 32.8226 21.2329 33.5043 21.2329H35.999V27.5507ZM12.8662 27.5507C12.8662 28.2209 13.137 28.8637 13.619 29.3376C14.1011 29.8115 14.7548 30.0778 15.4365 30.0778H15.3609C16.0426 30.0778 16.6964 29.8115 17.1784 29.3376C17.6604 28.8637 17.9312 28.2209 17.9312 27.5507V23.76C17.9312 23.0898 17.6604 22.447 17.1784 21.9731C16.6964 21.4992 16.0426 21.2329 15.3609 21.2329H12.8662V27.5507Z" fill="#FAFAFA" stroke="#2B2A2A" stroke-linecap="round" stroke-linejoin="round"/>
<path d="M26.0195 36.2545C26.0195 35.566 26.5777 35.0078 27.2663 35.0078H30.7597C31.4483 35.0078 32.0065 35.566 32.0065 36.2545C32.0065 36.9431 31.4483 37.5013 30.7597 37.5013H27.2663C26.5777 37.5013 26.0195 36.9431 26.0195 36.2545Z" fill="#FAFAFA" stroke="#2B2A2A"/>
</svg>
