<svg width="100" height="100" viewBox="0 0 100 100" fill="none" xmlns="http://www.w3.org/2000/svg">
<path d="M28.5234 50.691C28.5234 50.691 24.198 52.6327 26.2074 56.113C27.8763 59.0037 31.1144 57.384 32.061 56.8183C31.1482 57.4426 28.2758 59.6957 29.7449 62.2403C31.506 65.2906 36.0678 62.7508 37.3192 61.9739C36.3912 62.6128 33.8654 64.6605 35.3249 67.1883C37.086 70.2387 41.6478 67.6988 42.8992 66.9219C41.9711 67.5609 39.4454 69.6085 40.9048 72.1363C42.6736 75.2 46.7584 72.8416 46.7584 72.8416L66.6584 60.2791L73.8068 56.1519C79.2332 53.019 80.3926 48.6919 77.2597 43.2655L71.8415 33.8809C70.7916 32.0625 66.0736 31.115 64.0045 30.7574L54.3251 29.0845C51.3733 28.5744 50.7672 32.8569 49.5061 35.6888C49.3923 35.9443 49.2321 36.1747 49.044 36.3815L46.3809 39.3077L28.5234 50.691Z" fill="white"/>
<path d="M32.061 56.8183L43.2942 50.3328M32.061 56.8183C31.1144 57.384 27.8763 59.0037 26.2074 56.113C24.198 52.6327 28.5234 50.691 28.5234 50.691L46.3809 39.3077L49.044 36.3815C49.2321 36.1747 49.3923 35.9443 49.5061 35.6888C50.7672 32.8569 51.3733 28.5744 54.3251 29.0845L64.0045 30.7574C66.0736 31.115 70.7916 32.0625 71.8415 33.8809L77.2597 43.2655C80.3926 48.6919 79.2332 53.019 73.8068 56.1519L60.5311 63.8166M32.061 56.8183C31.1482 57.4426 28.2758 59.6957 29.7449 62.2403C31.7951 65.7914 37.6409 61.7663 37.6409 61.7663M37.6409 61.7663L46.8318 56.46M37.6409 61.7663C37.6409 61.7663 33.5561 64.1247 35.3249 67.1883C37.3751 70.7394 43.2209 66.7144 43.2209 66.7144M43.2209 66.7144L52.9088 60.0478M43.2209 66.7144C43.2209 66.7144 39.1361 69.0727 40.9048 72.1363C42.6736 75.2 46.7584 72.8416 46.7584 72.8416L66.6584 60.2791" stroke="#2B2A2A" stroke-width="2" stroke-linecap="round" stroke-linejoin="round"/>
<path d="M72.2144 50.2023C72.2144 50.2023 76.5398 52.1439 74.5304 55.6242C72.8615 58.5149 69.6234 56.8952 68.6768 56.3295C69.5896 56.9538 72.462 59.2069 70.9929 61.7515C69.2317 64.8018 64.67 62.262 63.4185 61.4851C64.3466 62.124 66.8723 64.1717 65.4129 66.6995C63.6518 69.7499 59.09 67.2101 57.8386 66.4331C58.7667 67.0721 61.2924 69.1197 59.8329 71.6476C58.0642 74.7112 53.9793 72.3528 53.9793 72.3528L38.6613 63.5089L32.534 59.9713L25.3856 55.8442C19.9592 52.7113 18.7998 48.3842 21.9327 42.9578L27.3509 33.5732C28.4008 31.7548 30.2041 30.4966 32.2732 30.139L41.9526 28.4661C45.0401 27.9325 48.1109 29.4932 49.4997 32.302L52.8115 39L72.2144 50.2023Z" fill="white"/>
<path d="M68.6768 56.3295L53.3588 47.4856M68.6768 56.3295C69.6234 56.8952 72.8615 58.5149 74.5304 55.6242C76.5398 52.1439 72.2144 50.2023 72.2144 50.2023L52.8115 39L49.4997 32.302C48.1109 29.4932 45.0401 27.9325 41.9526 28.4661L32.2732 30.139C30.2041 30.4966 28.4008 31.7548 27.3509 33.5732L21.9327 42.9578C18.7998 48.3842 19.9592 52.7113 25.3856 55.8442L38.6613 63.5089M68.6768 56.3295C69.5896 56.9538 72.462 59.2069 70.9929 61.7515C68.9427 65.3026 63.0969 61.2775 63.0969 61.2775M63.0969 61.2775L49.8212 53.6128M63.0969 61.2775C63.0969 61.2775 67.1817 63.6359 65.4129 66.6995C63.3627 70.2506 57.5169 66.2256 57.5169 66.2256M57.5169 66.2256L46.2837 59.74M57.5169 66.2256C57.5169 66.2256 61.6017 68.5839 59.8329 71.6476C58.0642 74.7112 53.9793 72.3528 53.9793 72.3528L32.534 59.9713" stroke="#2B2A2A" stroke-width="2" stroke-linecap="round" stroke-linejoin="round"/>
<path d="M53.5566 29L45.5658 31.1411C45.5658 31.1411 40.9996 32.3646 41.9021 35.733C42.9483 39.6372 49.654 37.266 49.654 37.266L53.0786 36.3484L53.5566 29Z" fill="white"/>
<path d="M53.5566 29L45.5658 31.1411C45.5658 31.1411 40.9996 32.3646 41.9021 35.733C42.9483 39.6372 49.654 37.266 49.654 37.266L53.0786 36.3484" stroke="#2B2A2A" stroke-width="2" stroke-linecap="round" stroke-linejoin="round"/>
</svg>
