<svg width="100" height="100" viewBox="0 0 100 100" fill="none" xmlns="http://www.w3.org/2000/svg">
<path d="M67.3335 30.5H32.6668C30.2736 30.5 28.3335 32.4401 28.3335 34.8333V56.5C28.3335 58.8932 30.2736 60.8333 32.6668 60.8333H67.3335C69.7267 60.8333 71.6668 58.8932 71.6668 56.5V34.8333C71.6668 32.4401 69.7267 30.5 67.3335 30.5Z" fill="white" stroke="#2B2A2A" stroke-width="2" stroke-linecap="round" stroke-linejoin="round"/>
<path d="M41.3335 69.5H58.6668" stroke="#2B2A2A" stroke-width="2" stroke-linecap="round" stroke-linejoin="round"/>
<path d="M50 60.8334V69.5" stroke="#2B2A2A" stroke-width="2" stroke-linecap="round" stroke-linejoin="round"/>
<path d="M56.9073 48.9176C56.4302 50.0459 55.6839 51.0402 54.7337 51.8135C53.7835 52.5868 52.6584 53.1156 51.4566 53.3536C50.2549 53.5917 49.0131 53.5317 47.8399 53.1789C46.6667 52.8261 45.5978 52.1914 44.7266 51.33C43.8554 50.4687 43.2084 49.4071 42.8423 48.238C42.4762 47.0689 42.402 45.8279 42.6263 44.6235C42.8505 43.4191 43.3664 42.288 44.1288 41.3291C44.8913 40.3701 45.877 39.6125 46.9998 39.1226" stroke="#2B2A2A" stroke-width="2" stroke-linecap="round" stroke-linejoin="round"/>
<path d="M57.5 46C57.5 45.0151 57.306 44.0398 56.9291 43.1299C56.5522 42.2199 55.9997 41.3931 55.3033 40.6967C54.6069 40.0003 53.7801 39.4478 52.8701 39.0709C51.9602 38.694 50.9849 38.5 50 38.5V46H57.5Z" stroke="#2B2A2A" stroke-width="2" stroke-linecap="round" stroke-linejoin="round"/>
</svg>
