<svg width="100" height="100" viewBox="0 0 100 100" fill="none" xmlns="http://www.w3.org/2000/svg">
<path d="M61.25 66.9999V56.9999C61.2495 56.5615 61.1338 56.1309 60.9144 55.7513C60.695 55.3718 60.3797 55.0566 60 54.8374L51.25 49.8374C50.87 49.618 50.4388 49.5024 50 49.5024C49.5612 49.5024 49.13 49.618 48.75 49.8374L40 54.8374C39.6203 55.0566 39.305 55.3718 39.0856 55.7513C38.8662 56.1309 38.7504 56.5615 38.75 56.9999V66.9999C38.7504 67.4383 38.8662 67.8689 39.0856 68.2484C39.305 68.628 39.6203 68.9432 40 69.1624L48.75 74.1624C49.13 74.3818 49.5612 74.4973 50 74.4973C50.4388 74.4973 50.87 74.3818 51.25 74.1624L60 69.1624C60.3797 68.9432 60.695 68.628 60.9144 68.2484C61.1338 67.8689 61.2495 67.4383 61.25 66.9999Z" fill="white" stroke="#2B2A2A" stroke-width="2" stroke-linecap="round" stroke-linejoin="round"/>
<path d="M39.0874 55.7L49.9999 62.0125L60.9124 55.7" stroke="black" stroke-width="2" stroke-linecap="round" stroke-linejoin="round"/>
<path d="M50 74.6V62" stroke="#2B2A2A" stroke-width="2" stroke-linecap="round" stroke-linejoin="round"/>
<path d="M72.25 72.9999V62.9999C72.2495 62.5615 72.1338 62.1309 71.9144 61.7513C71.695 61.3718 71.3797 61.0566 71 60.8374L62.25 55.8374C61.87 55.618 61.4388 55.5024 61 55.5024C60.5612 55.5024 60.13 55.618 59.75 55.8374L51 60.8374C50.6203 61.0566 50.305 61.3718 50.0856 61.7513C49.8662 62.1309 49.7504 62.5615 49.75 62.9999V72.9999C49.7504 73.4383 49.8662 73.8689 50.0856 74.2484C50.305 74.628 50.6203 74.9432 51 75.1624L59.75 80.1624C60.13 80.3818 60.5612 80.4973 61 80.4973C61.4388 80.4973 61.87 80.3818 62.25 80.1624L71 75.1624C71.3797 74.9432 71.695 74.628 71.9144 74.2484C72.1338 73.8689 72.2495 73.4383 72.25 72.9999Z" fill="white" stroke="#2B2A2A" stroke-width="2" stroke-linecap="round" stroke-linejoin="round"/>
<path d="M50.0874 61.7L60.9999 68.0125L71.9124 61.7" stroke="#2B2A2A" stroke-width="2" stroke-linecap="round" stroke-linejoin="round"/>
<path d="M61 80.5V68" stroke="#2B2A2A" stroke-width="2" stroke-linecap="round" stroke-linejoin="round"/>
<path d="M50.25 72.9999V62.9999C50.2495 62.5615 50.1338 62.1309 49.9144 61.7513C49.695 61.3718 49.3797 61.0566 49 60.8374L40.25 55.8374C39.87 55.618 39.4388 55.5024 39 55.5024C38.5612 55.5024 38.13 55.618 37.75 55.8374L29 60.8374C28.6203 61.0566 28.305 61.3718 28.0856 61.7513C27.8662 62.1309 27.7504 62.5615 27.75 62.9999V72.9999C27.7504 73.4383 27.8662 73.8689 28.0856 74.2484C28.305 74.628 28.6203 74.9432 29 75.1624L37.75 80.1624C38.13 80.3818 38.5612 80.4973 39 80.4973C39.4388 80.4973 39.87 80.3818 40.25 80.1624L49 75.1624C49.3797 74.9432 49.695 74.628 49.9144 74.2484C50.1338 73.8689 50.2495 73.4383 50.25 72.9999Z" fill="white" stroke="#2B2A2A" stroke-width="2" stroke-linecap="round" stroke-linejoin="round"/>
<path d="M28.0874 61.7L38.9999 68.0125L49.9124 61.7" stroke="#2B2A2A" stroke-width="2" stroke-linecap="round" stroke-linejoin="round"/>
<path d="M39 80V68" stroke="#2B2A2A" stroke-width="2" stroke-linecap="round" stroke-linejoin="round"/>
<path d="M50 48C50.5523 48 51 47.5523 51 47C51 46.4477 50.5523 46 50 46C49.4477 46 49 46.4477 49 47C49 47.5523 49.4477 48 50 48Z" fill="#2B2A2A"/>
<path d="M50 42C50.5523 42 51 41.5523 51 41C51 40.4477 50.5523 40 50 40C49.4477 40 49 40.4477 49 41C49 41.5523 49.4477 42 50 42Z" fill="#2B2A2A"/>
<path d="M50 54C50.5523 54 51 53.5523 51 53C51 52.4477 50.5523 52 50 52C49.4477 52 49 52.4477 49 53C49 53.5523 49.4477 54 50 54Z" fill="#2B2A2A"/>
<path d="M61.25 35.9999V25.9999C61.2495 25.5615 61.1338 25.1309 60.9144 24.7513C60.695 24.3718 60.3797 24.0566 60 23.8374L51.25 18.8374C50.87 18.618 50.4388 18.5024 50 18.5024C49.5612 18.5024 49.13 18.618 48.75 18.8374L40 23.8374C39.6203 24.0566 39.305 24.3718 39.0856 24.7513C38.8662 25.1309 38.7504 25.5615 38.75 25.9999V35.9999C38.7504 36.4383 38.8662 36.8689 39.0856 37.2484C39.305 37.628 39.6203 37.9432 40 38.1624L48.75 43.1624C49.13 43.3818 49.5612 43.4973 50 43.4973C50.4388 43.4973 50.87 43.3818 51.25 43.1624L60 38.1624C60.3797 37.9432 60.695 37.628 60.9144 37.2484C61.1338 36.8689 61.2495 36.4383 61.25 35.9999Z" fill="white" stroke="#2B2A2A" stroke-width="2" stroke-linecap="round" stroke-linejoin="round"/>
<path d="M39.0874 24.7L49.9999 31.0125L60.9124 24.7" stroke="#2B2A2A" stroke-width="2" stroke-linecap="round" stroke-linejoin="round"/>
<path d="M50 43.5V31" stroke="#2B2A2A" stroke-width="2" stroke-linecap="round" stroke-linejoin="round"/>
</svg>
