<svg width="100" height="100" viewBox="0 0 100 100" fill="none" xmlns="http://www.w3.org/2000/svg">
<path d="M65.2727 28H22.7273C20.1165 28 18 30.0147 18 32.5V59.5C18 61.9853 20.1165 64 22.7273 64H65.2727C67.8835 64 70 61.9853 70 59.5V32.5C70 30.0147 67.8835 28 65.2727 28Z" fill="white" stroke="#2B2A2A" stroke-width="2" stroke-linecap="round" stroke-linejoin="round"/>
<path d="M38.6668 53.5V51.8333C38.6668 50.9493 38.3156 50.1014 37.6905 49.4763C37.0654 48.8512 36.2176 48.5 35.3335 48.5H28.6668C27.7828 48.5 26.9349 48.8512 26.3098 49.4763C25.6847 50.1014 25.3335 50.9493 25.3335 51.8333V53.5" stroke="#2B2A2A" stroke-width="2" stroke-linecap="round" stroke-linejoin="round"/>
<path d="M31.9998 45.1667C33.8408 45.1667 35.3332 43.6743 35.3332 41.8333C35.3332 39.9924 33.8408 38.5 31.9998 38.5C30.1589 38.5 28.6665 39.9924 28.6665 41.8333C28.6665 43.6743 30.1589 45.1667 31.9998 45.1667Z" stroke="#2B2A2A" stroke-width="2" stroke-linecap="round" stroke-linejoin="round"/>
<path d="M44 40H56" stroke="#2B2A2A" stroke-width="2" stroke-linecap="round"/>
<path d="M44 46H62" stroke="#2B2A2A" stroke-width="2" stroke-linecap="round"/>
<path d="M44 52H56" stroke="#2B2A2A" stroke-width="2" stroke-linecap="round"/>
<path d="M79.8399 74.12C80.9991 73.3049 81.8684 72.1416 82.3216 70.7989C82.7749 69.4562 82.7885 68.0041 82.3604 66.6531C81.9324 65.3022 81.0851 64.1228 79.9413 63.2861C78.7976 62.4494 77.417 61.9989 75.9999 62H74.3199C73.9189 60.4372 73.1686 58.9857 72.1254 57.7548C71.0822 56.5239 69.7734 55.5457 68.2975 54.8938C66.8216 54.242 65.217 53.9334 63.6046 53.9914C61.9922 54.0494 60.4139 54.4724 58.9886 55.2286C57.5634 55.9848 56.3282 57.0545 55.3762 58.3571C54.4241 59.6598 53.78 61.1614 53.4923 62.749C53.2045 64.3366 53.2807 65.9688 53.7151 67.5227C54.1494 69.0766 54.9307 70.5117 55.9999 71.72" fill="white"/>
<path d="M79.8399 74.12C80.9991 73.3049 81.8684 72.1416 82.3216 70.7989C82.7749 69.4562 82.7885 68.0041 82.3604 66.6531C81.9324 65.3022 81.0851 64.1228 79.9413 63.2861C78.7976 62.4494 77.417 61.9989 75.9999 62H74.3199C73.9189 60.4372 73.1686 58.9857 72.1254 57.7548C71.0822 56.5239 69.7734 55.5457 68.2975 54.8938C66.8216 54.242 65.217 53.9334 63.6046 53.9914C61.9922 54.0494 60.4139 54.4724 58.9886 55.2286C57.5634 55.9848 56.3282 57.0545 55.3762 58.3571C54.4241 59.6598 53.78 61.1614 53.4923 62.749C53.2045 64.3366 53.2807 65.9688 53.7151 67.5227C54.1494 69.0766 54.9307 70.5117 55.9999 71.72" stroke="#2B2A2A" stroke-width="2" stroke-linecap="round" stroke-linejoin="round"/>
<path d="M62.6665 72.6666L67.9998 78L73.3332 72.6666" stroke="#2B2A2A" stroke-width="2" stroke-linecap="round" stroke-linejoin="round"/>
<path d="M68 66V78" stroke="#2B2A2A" stroke-width="2" stroke-linecap="round" stroke-linejoin="round"/>
</svg>
