<svg width="100" height="100" viewBox="0 0 100 100" fill="none" xmlns="http://www.w3.org/2000/svg">
<path d="M48.3332 24.3334H30.9998C29.8506 24.3334 28.7484 24.7899 27.9357 25.6026C27.1231 26.4152 26.6665 27.5174 26.6665 28.6667V63.3334C26.6665 64.4826 27.1231 65.5848 27.9357 66.3975C28.7484 67.2102 29.8506 67.6667 30.9998 67.6667H56.9998C58.1491 67.6667 59.2513 67.2102 60.064 66.3975C60.8766 65.5848 61.3332 64.4826 61.3332 63.3334V37.3334L48.3332 24.3334Z" fill="white" stroke="black" stroke-width="2" stroke-linecap="round" stroke-linejoin="round"/>
<path d="M48.3335 24.3334V37.3334H61.3335" stroke="black" stroke-width="2" stroke-linecap="round" stroke-linejoin="round"/>
<path d="M44 50C47.866 50 51 46.866 51 43C51 39.134 47.866 36 44 36C40.134 36 37 39.134 37 43C37 46.866 40.134 50 44 50Z" stroke="black" stroke-width="2" stroke-linecap="round" stroke-linejoin="round"/>
<path d="M40.21 48.89L39 58L44 55L49 58L47.79 48.88" stroke="black" stroke-width="2" stroke-linecap="round" stroke-linejoin="round"/>
<path d="M77.8399 72.12C78.9991 71.3049 79.8684 70.1416 80.3216 68.7989C80.7749 67.4562 80.7885 66.0041 80.3604 64.6531C79.9324 63.3022 79.0851 62.1228 77.9413 61.2861C76.7976 60.4494 75.417 59.9989 73.9999 60H72.3199C71.9189 58.4372 71.1686 56.9857 70.1254 55.7548C69.0822 54.5239 67.7734 53.5457 66.2975 52.8938C64.8216 52.242 63.217 51.9334 61.6046 51.9914C59.9922 52.0494 58.4139 52.4724 56.9886 53.2286C55.5634 53.9848 54.3282 55.0545 53.3762 56.3571C52.4241 57.6598 51.78 59.1614 51.4923 60.749C51.2045 62.3366 51.2807 63.9688 51.7151 65.5227C52.1494 67.0766 52.9307 68.5117 53.9999 69.72" fill="white"/>
<path d="M77.8399 72.12C78.9991 71.3049 79.8684 70.1416 80.3216 68.7989C80.7749 67.4562 80.7885 66.0041 80.3604 64.6531C79.9324 63.3022 79.0851 62.1228 77.9413 61.2861C76.7976 60.4494 75.417 59.9989 73.9999 60H72.3199C71.9189 58.4372 71.1686 56.9857 70.1254 55.7548C69.0822 54.5239 67.7734 53.5457 66.2975 52.8938C64.8216 52.242 63.217 51.9334 61.6046 51.9914C59.9922 52.0494 58.4139 52.4724 56.9886 53.2286C55.5634 53.9848 54.3282 55.0545 53.3762 56.3571C52.4241 57.6598 51.78 59.1614 51.4923 60.749C51.2045 62.3366 51.2807 63.9688 51.7151 65.5227C52.1494 67.0766 52.9307 68.5117 53.9999 69.72" stroke="black" stroke-width="2" stroke-linecap="round" stroke-linejoin="round"/>
<path d="M60.6665 70.6666L65.9998 76L71.3332 70.6666" stroke="black" stroke-width="2" stroke-linecap="round" stroke-linejoin="round"/>
<path d="M66 64V76" stroke="black" stroke-width="2" stroke-linecap="round" stroke-linejoin="round"/>
</svg>
