<svg width="100" height="100" viewBox="0 0 100 100" fill="none" xmlns="http://www.w3.org/2000/svg">
<path d="M64.3333 27H31.6667C29.0893 27 27 29.0893 27 31.6667V64.3333C27 66.9107 29.0893 69 31.6667 69H64.3333C66.9107 69 69 66.9107 69 64.3333V31.6667C69 29.0893 66.9107 27 64.3333 27Z" fill="white" stroke="#2B2A2A" stroke-width="2" stroke-linecap="round" stroke-linejoin="round"/>
<path d="M27 35H69" stroke="#2B2A2A" stroke-width="2" stroke-linecap="round" stroke-linejoin="round"/>
<path d="M58 59L58 47" stroke="#2B2A2A" stroke-width="2" stroke-linecap="round" stroke-linejoin="round"/>
<path d="M44 59V43" stroke="#2B2A2A" stroke-width="2" stroke-linecap="round" stroke-linejoin="round"/>
<path d="M51 59L51 53" stroke="#2B2A2A" stroke-width="2" stroke-linecap="round" stroke-linejoin="round"/>
<path d="M37 59V53" stroke="#2B2A2A" stroke-width="2" stroke-linecap="round" stroke-linejoin="round"/>
<g clip-path="url(#clip0_1667_2716)">
<path d="M74.8668 67.9999C74.6893 68.4021 74.6364 68.8482 74.7148 69.2807C74.7932 69.7132 74.9994 70.1123 75.3068 70.4266L75.3868 70.5066C75.6348 70.7542 75.8315 71.0484 75.9657 71.3721C76.0999 71.6958 76.1689 72.0428 76.1689 72.3933C76.1689 72.7437 76.0999 73.0907 75.9657 73.4144C75.8315 73.7382 75.6348 74.0323 75.3868 74.2799C75.1392 74.5279 74.8451 74.7245 74.5213 74.8587C74.1976 74.9929 73.8506 75.062 73.5002 75.062C73.1497 75.062 72.8027 74.9929 72.479 74.8587C72.1553 74.7245 71.8612 74.5279 71.6135 74.2799L71.5335 74.1999C71.2193 73.8925 70.8201 73.6863 70.3876 73.6079C69.9551 73.5295 69.509 73.5824 69.1068 73.7599C68.7125 73.9289 68.3761 74.2096 68.1392 74.5673C67.9023 74.925 67.7752 75.3442 67.7735 75.7733V75.9999C67.7735 76.7072 67.4925 77.3854 66.9924 77.8855C66.4923 78.3856 65.8141 78.6666 65.1068 78.6666C64.3996 78.6666 63.7213 78.3856 63.2212 77.8855C62.7211 77.3854 62.4402 76.7072 62.4402 75.9999V75.8799C62.4298 75.4386 62.287 75.0106 62.0302 74.6515C61.7734 74.2925 61.4145 74.019 61.0002 73.8666C60.598 73.6891 60.1519 73.6362 59.7194 73.7146C59.2869 73.793 58.8877 73.9992 58.5735 74.3066L58.4935 74.3866C58.2458 74.6345 57.9517 74.8312 57.628 74.9654C57.3043 75.0996 56.9573 75.1687 56.6068 75.1687C56.2564 75.1687 55.9094 75.0996 55.5857 74.9654C55.2619 74.8312 54.9678 74.6345 54.7202 74.3866C54.4722 74.1389 54.2755 73.8448 54.1413 73.5211C54.0071 73.1974 53.9381 72.8504 53.9381 72.4999C53.9381 72.1495 54.0071 71.8025 54.1413 71.4787C54.2755 71.155 54.4722 70.8609 54.7202 70.6133L54.8002 70.5333C55.1075 70.219 55.3137 69.8199 55.3922 69.3874C55.4706 68.9548 55.4176 68.5087 55.2402 68.1066C55.0711 67.7122 54.7905 67.3759 54.4328 67.139C54.0751 66.9021 53.6559 66.775 53.2268 66.7733H53.0002C52.2929 66.7733 51.6146 66.4923 51.1145 65.9922C50.6144 65.4921 50.3335 64.8138 50.3335 64.1066C50.3335 63.3993 50.6144 62.7211 51.1145 62.221C51.6146 61.7209 52.2929 61.4399 53.0002 61.4399H53.1202C53.5615 61.4296 53.9895 61.2867 54.3486 61.0299C54.7076 60.7731 54.9811 60.4142 55.1335 59.9999C55.311 59.5978 55.3639 59.1517 55.2855 58.7191C55.2071 58.2866 55.0009 57.8875 54.6935 57.5733L54.6135 57.4933C54.3656 57.2456 54.1689 56.9515 54.0347 56.6278C53.9005 56.304 53.8314 55.957 53.8314 55.6066C53.8314 55.2561 53.9005 54.9091 54.0347 54.5854C54.1689 54.2617 54.3656 53.9676 54.6135 53.7199C54.8612 53.472 55.1553 53.2753 55.479 53.1411C55.8027 53.0069 56.1497 52.9378 56.5002 52.9378C56.8506 52.9378 57.1976 53.0069 57.5213 53.1411C57.8451 53.2753 58.1392 53.472 58.3868 53.7199L58.4668 53.7999C58.7811 54.1073 59.1802 54.3135 59.6127 54.3919C60.0452 54.4703 60.4913 54.4174 60.8935 54.2399H61.0002C61.3945 54.0709 61.7309 53.7903 61.9678 53.4325C62.2047 53.0748 62.3318 52.6556 62.3335 52.2266V51.9999C62.3335 51.2927 62.6144 50.6144 63.1145 50.1143C63.6146 49.6142 64.2929 49.3333 65.0002 49.3333C65.7074 49.3333 66.3857 49.6142 66.8858 50.1143C67.3859 50.6144 67.6668 51.2927 67.6668 51.9999V52.1199C67.6685 52.549 67.7957 52.9682 68.0326 53.3259C68.2695 53.6836 68.6058 53.9642 69.0002 54.1333C69.4023 54.3107 69.8484 54.3637 70.2809 54.2853C70.7135 54.2068 71.1126 54.0006 71.4268 53.6933L71.5068 53.6133C71.7545 53.3653 72.0486 53.1686 72.3723 53.0344C72.6961 52.9002 73.0431 52.8312 73.3935 52.8312C73.7439 52.8312 74.0909 52.9002 74.4147 53.0344C74.7384 53.1686 75.0325 53.3653 75.2802 53.6133C75.5281 53.8609 75.7248 54.155 75.859 54.4787C75.9932 54.8025 76.0623 55.1495 76.0623 55.4999C76.0623 55.8504 75.9932 56.1974 75.859 56.5211C75.7248 56.8448 75.5281 57.1389 75.2802 57.3866L75.2002 57.4666C74.8928 57.7808 74.6866 58.1799 74.6082 58.6125C74.5297 59.045 74.5827 59.4911 74.7602 59.8933V59.9999C74.9292 60.3943 75.2098 60.7306 75.5675 60.9675C75.9253 61.2044 76.3444 61.3315 76.7735 61.3333H77.0002C77.7074 61.3333 78.3857 61.6142 78.8858 62.1143C79.3859 62.6144 79.6668 63.2927 79.6668 63.9999C79.6668 64.7072 79.3859 65.3854 78.8858 65.8855C78.3857 66.3856 77.7074 66.6666 77.0002 66.6666H76.8802C76.4511 66.6683 76.0319 66.7954 75.6742 67.0323C75.3165 67.2692 75.0358 67.6056 74.8668 67.9999Z" fill="white" stroke="#2B2A2A" stroke-width="2" stroke-linecap="round" stroke-linejoin="round"/>
<path d="M65 68C67.2091 68 69 66.2091 69 64C69 61.7909 67.2091 60 65 60C62.7909 60 61 61.7909 61 64C61 66.2091 62.7909 68 65 68Z" stroke="#2B2A2A" stroke-width="2" stroke-linecap="round" stroke-linejoin="round"/>
</g>
<defs>
<clipPath id="clip0_1667_2716">
<rect width="32" height="32" fill="white" transform="translate(49 48)"/>
</clipPath>
</defs>
</svg>
